<svg width="32" height="32" viewBox="0 0 32 32" fill="none" xmlns="http://www.w3.org/2000/svg">
  <!-- Background circle -->
  <circle cx="16" cy="16" r="15" fill="#2563eb" stroke="#1d4ed8" stroke-width="2"/>
  
  <!-- People/Employees icon -->
  <path d="M12 12C12 10.3431 13.3431 9 15 9C16.6569 9 18 10.3431 18 12C18 13.6569 16.6569 15 15 15C13.3431 15 12 13.6569 12 12Z" fill="white"/>
  <path d="M20 12C20 10.3431 21.3431 9 23 9C24.6569 9 26 10.3431 26 12C26 13.6569 24.6569 15 23 15C21.3431 15 20 13.6569 20 12Z" fill="white"/>
  
  <!-- Body/Connection lines -->
  <path d="M15 15L15 20" stroke="white" stroke-width="2" stroke-linecap="round"/>
  <path d="M23 15L23 20" stroke="white" stroke-width="2" stroke-linecap="round"/>
  
  <!-- Connection line between people -->
  <path d="M18 13L20 13" stroke="white" stroke-width="2" stroke-linecap="round"/>
  
  <!-- Base/Platform -->
  <path d="M10 22L22 22" stroke="white" stroke-width="2" stroke-linecap="round"/>
  
  <!-- Management/Chart elements -->
  <path d="M8 26L12 24L16 26L20 24L24 26" stroke="white" stroke-width="1.5" stroke-linecap="round" stroke-linejoin="round"/>
</svg>

